Patient4_TMGait_0pt3_01_left_21_EMG.mot
version=1
nRows=16
nColumns=33
inDegrees=no
endheader
time	1LAddLong	2LGlutMax	3LGlutMed	4LIliopsoas	5LSemiMemb	6LBicFemLong	7LRecFem	8LVastMed	9LVastLat	10LGasMed	11LTibAnt	12lTibPost	13LPeroneusLong	14LSol	15LExtDigLong	16LFlexDigLong	17RAddLong	18RGlutMax	19RGlutMed	20RIliopsoas	21RSemiMemb	22RBicFemLong	23RRecFem	24RVastMed	25RVastLat	26RGasMed	27RTibAnt	28RTibPost	29RPeroneusLong	30RSol	31RExtDigLong	32RFlexDigLong
40.645	0.004425	-0.15106	-0.15335	-0.002594	-0.067291	-0.029907	0.093842	0.005188	0.072021	-0.034637	-0.053711	-0.004883	0.04303	-0.003662	0.075684	0.003052	0.063477	-0.042267	0.13672	-0.17349	0.16174	0.023804	-0.40085	-0.048065	-0.24414	0.000763	0.077209	0.002136	-0.004272	0.03891	-0.001984	-0.00946
40.646	0.011292	-0.15366	-0.080109	-0.006104	0.050812	-0.081177	0.09201	-0.002747	0.07782	-0.038605	-0.036774	0.000153	-0.065308	0.056	0.040588	0.012665	0.045471	-0.05127	0.071259	-0.21881	0.15701	-0.012054	-0.31326	-0.079193	-0.14206	-0.003052	0.074158	-0.002136	-0.034332	0.031128	-0.003967	-0.010834
40.647	0.018158	-0.14618	-0.038452	-0.011749	0.07782	-0.03418	0.1001	-0.003204	0.061798	0.044861	-0.019989	0.006104	-0.018921	0.078125	0.032349	0.010376	0.014038	-0.039215	-0.05722	-0.16693	0.033875	-0.042572	-0.10834	-0.078583	-0.17425	-0.006104	0.068054	0.000458	-0.050507	0.045776	-0.001068	-0.009766
40.648	0.015259	-0.13641	-0.06012	-0.003357	0.070038	0.034027	0.10834	-0.004425	0.067444	0.13367	-0.036316	0.004425	0.057373	0.060425	0.050964	-0.000153	-0.003052	-0.11215	-0.10422	-0.021973	0.23987	-0.10727	-0.019684	0.12451	-0.16403	-0.002136	0.057068	-0.000763	-0.040894	0.02594	-0.002136	-0.007935
40.649	0.028687	-0.103	-0.097961	-0.001984	0.08194	0.030518	0.10727	-0.010681	0.08255	0.17288	-0.034943	0.006104	0.041199	-0.082855	0.091248	-0.00473	0.011597	-0.053711	-0.18784	0.13794	0.30319	-0.13687	0.020142	0.059967	-0.1442	-0.000305	0.04776	0.001984	-0.019989	0.007172	-0.004883	-0.010071
40.65	0.014648	-0.13657	-0.096741	0.014954	0.027618	0.027618	0.092773	-0.001221	0.073395	0.2092	-0.02243	-0.000763	0.043945	-0.17868	-0.003204	-0.014801	-0.036316	-0.049896	-0.052948	0.27023	0.35858	-0.036316	-0.018463	0.060883	-0.06958	-0.005341	0.040283	0.001221	-0.019379	-0.004578	0.001221	-0.008392
40.651	0.008087	-0.12985	-0.042419	0.007629	0.017395	0.031433	0.092773	0.000305	0.079041	0.21622	-0.003815	-0.003204	0.038605	-0.16388	-0.018005	0	-0.077972	0.030518	0.31525	0.29633	0.27588	0.10117	-0.11307	0.11902	0.26443	-0.004883	0.042114	0.000763	0	0.00061	0.000305	-0.008545
40.652	0.016174	-0.12283	-0.078583	0.006256	-0.013733	-0.015259	0.11078	-0.007172	0.070496	0.079651	-0.002441	0.001678	0.044708	-0.1651	-0.013733	-0.00946	-0.079956	-0.015106	0.52887	0.2565	0.10193	0.11139	-0.053864	0.097504	0.37384	0.00412	0.050659	0.00412	-0.004272	-0.0177	-0.003662	-0.016632
40.653	0.015564	-0.083923	-0.098724	0.010376	0.002747	-0.087128	0.08667	-0.001526	0.077972	-0.16296	-0.007324	-0.006714	0.046082	-0.12787	-0.026398	-0.002594	-0.037079	-0.050812	0.32501	0.19241	0.11673	0.018921	0.054626	0.021362	0.3038	0.001526	0.086975	0	0.002747	0.00473	-0.005035	-0.017548
40.654	0.015564	-0.11185	-0.16113	0.001221	0.045624	-0.11475	0.1059	0.002594	0.063629	-0.159	0.024109	-0.007172	0.026245	-0.10559	-0.00412	0.005798	-0.0177	-0.065308	0.25009	0.12039	0.083008	0.04776	0.1152	0.011902	0.2269	-0.003967	0.11765	0.002899	0.010529	-0.024109	-0.004578	-0.009003
40.655	0.005341	-0.1358	-0.16617	0.015411	0.027618	-0.070496	0.10574	-0.005493	0.057068	-0.061493	0.0383	0.010223	0.008698	-0.11398	-0.021973	0.003204	-0.022888	-0.004425	0.085754	0.032349	0.016022	0.072327	0.098419	0.13031	0.13397	-0.000458	0.17761	0.000305	0.014343	-0.017242	-0.005188	-0.012512
40.656	0.012207	-0.10147	-0.11826	-0.001678	0.014648	-0.067444	0.098419	-0.005035	0.061951	-0.062256	0.041504	0.005188	0.005951	-0.06546	-0.013733	-0.002136	-0.019226	-0.002747	0.26535	-0.036469	-0.032196	0.08255	0.11612	0.16296	0.054626	0.002747	0.071106	-0.002747	0.044403	-0.054779	-0.003357	-0.010986
40.657	0.010071	-0.071564	-0.1062	-0.003662	0.006866	-0.037079	0.067902	-0.004272	0.075073	-0.057983	0.026855	0.00473	0.029602	0.006256	-0.040741	-0.00824	-0.010986	-0.008698	0.50308	-0.027161	-0.000153	0.1239	0.075989	0.22049	0.017395	-0.000305	-0.12573	0.002899	0.038147	-0.07843	-0.005188	-0.012817
40.658	0.011902	-0.06897	-0.095673	-0.001526	-0.00824	-0.039673	0.011139	-0.004425	0.060425	-0.045776	-0.020294	0.00412	0.059814	-0.04425	-0.066681	-0.001984	0.012817	-0.062103	0.61172	-0.059662	0.112	0.1178	0.023651	0.13779	-0.061035	0.003357	-0.12787	0.001526	0.040283	-0.10803	-0.001678	-0.005951
40.659	0.012512	-0.094604	-0.17914	0.009613	0.018005	-0.061951	0.016022	-0.003357	0.095215	-0.15472	-0.10361	-0.000916	0.049133	-0.040894	-0.024719	-0.011597	0.012207	-0.036774	0.25436	-0.040436	0.22324	0.11841	-0.33264	0.1445	-0.03952	0.000458	-0.14526	0.000763	-0.020752	-0.093689	-0.004425	-0.011139
40.66	0.010071	-0.093536	-0.18555	0.005798	-0.003357	-0.064087	0.055847	-0.010834	0.10437	-0.21225	-0.091553	0.00061	0.026398	-0.004578	0.076447	-0.001831	0.022888	-0.094147	0.15045	-0.031433	0.30838	0.10544	-0.3241	0.10788	-0.1796	-0.003357	0.058441	0.002747	-0.088959	-0.087585	-0.001678	-0.011292
